<?xml version="1.0" encoding="UTF-8"?> <svg xmlns="http://www.w3.org/2000/svg" width="64" height="45" viewBox="0 0 64 45" fill="none"> <path fill-rule="evenodd" clip-rule="evenodd" d="M4.46 44.0001V35.5801H15.98V8.9148L7.43997 19.028L0.991737 13.602L12.3139 0.120117H25.84V35.5801H35.32V44.0001H4.46ZM24.84 36.5801V1.12012H12.78L2.40037 13.4797L7.31961 17.6198L16.44 6.82012H16.98V36.5801H5.46V43.0001H34.32V36.5801H24.84ZM56.9766 44.6601C54.7995 44.6601 52.9894 44.2072 51.8295 43.0472C50.756 41.9738 50.2166 40.6369 50.2166 39.1001V37.3001C50.2166 35.7634 50.756 34.4264 51.8295 33.353C52.9894 32.1931 54.7995 31.7401 56.9766 31.7401C59.1536 31.7401 60.9637 32.1931 62.1237 33.353C63.1971 34.4264 63.7366 35.7634 63.7366 37.3001V39.1001C63.7366 40.6369 63.1971 41.9738 62.1237 43.0472C60.9637 44.2072 59.1536 44.6601 56.9766 44.6601ZM52.5366 42.3401C53.4166 43.2201 54.8966 43.6601 56.9766 43.6601C59.0566 43.6601 60.5366 43.2201 61.4166 42.3401C62.2966 41.4601 62.7366 40.3801 62.7366 39.1001V37.3001C62.7366 36.0201 62.2966 34.9401 61.4166 34.0601C60.5366 33.1801 59.0566 32.7401 56.9766 32.7401C54.8966 32.7401 53.4166 33.1801 52.5366 34.0601C51.6566 34.9401 51.2166 36.0201 51.2166 37.3001V39.1001C51.2166 40.3801 51.6566 41.4601 52.5366 42.3401Z" fill="#0937FD"></path> </svg> 