<?xml version="1.0" encoding="UTF-8"?> <svg xmlns="http://www.w3.org/2000/svg" width="63" height="46" viewBox="0 0 63 46" fill="none"> <path fill-rule="evenodd" clip-rule="evenodd" d="M33 44.9999H1.48V36.2184L15.2692 24.4606C15.2697 24.4602 15.2702 24.4598 15.2707 24.4594C17.4741 22.5706 19.0624 20.8961 20.0744 19.4356C21.0491 17.9897 21.52 16.4841 21.52 14.8999V14.2999C21.52 12.4877 21.0179 11.2697 20.1595 10.4727C19.2759 9.65213 17.9877 9.1799 16.16 9.1799C14.1411 9.1799 12.7561 9.72621 11.839 10.6749C10.8018 11.7478 10.038 13.0821 9.55901 14.7032L9.25407 15.7354L0.515102 12.4391L0.808552 11.5321C1.27613 10.0868 1.93417 8.70835 2.7797 7.39778L2.78392 7.39123C3.68193 6.02285 4.77338 4.82458 6.0553 3.79904L6.06152 3.79406L6.06782 3.78918C7.40505 2.75391 8.96467 1.94534 10.7337 1.35457C12.5392 0.711294 14.573 0.399902 16.82 0.399902C19.1482 0.399902 21.2457 0.731577 23.0957 1.41785C24.963 2.05617 26.5638 2.98014 27.8757 4.2027C29.186 5.38381 30.171 6.80751 30.826 8.46227C31.5193 10.113 31.86 11.9029 31.86 13.8199C31.86 15.6455 31.5632 17.3462 30.9564 18.911C30.4026 20.4411 29.618 21.9003 28.6087 23.2881L28.6044 23.294L28.6 23.2999C27.5994 24.634 26.4175 25.9185 25.0584 27.1547C23.7586 28.3729 22.3403 29.5883 20.8044 30.801L13.8855 36.3999H33V44.9999ZM11.06 37.3999L20.18 30.0199C21.7 28.8199 23.1 27.6199 24.38 26.4199C25.7 25.2199 26.84 23.9799 27.8 22.6999C28.76 21.3799 29.5 19.9999 30.02 18.5599C30.58 17.1199 30.86 15.5399 30.86 13.8199C30.86 12.0199 30.54 10.3599 29.9 8.8399C29.3 7.3199 28.4 6.0199 27.2 4.9399C26 3.8199 24.52 2.9599 22.76 2.3599C21.04 1.7199 19.06 1.3999 16.82 1.3999C14.66 1.3999 12.74 1.6999 11.06 2.2999C9.38 2.8599 7.92 3.6199 6.68 4.5799C5.48 5.5399 4.46 6.6599 3.62 7.9399C2.82 9.1799 2.2 10.4799 1.76 11.8399L8.6 14.4199C8.69615 14.0945 8.80324 13.7786 8.92128 13.4723C9.44158 12.1222 10.1745 10.958 11.12 9.9799C12.28 8.7799 13.96 8.1799 16.16 8.1799C18.16 8.1799 19.72 8.6999 20.84 9.7399C21.96 10.7799 22.52 12.2999 22.52 14.2999V14.8999C22.52 16.6999 21.98 18.3999 20.9 19.9999C19.82 21.5599 18.16 23.2999 15.92 25.2199L2.48 36.6799V43.9999H32V37.3999H11.06ZM55.9766 45.6599C53.7995 45.6599 51.9894 45.207 50.8295 44.047C49.756 42.9736 49.2166 41.6367 49.2166 40.0999V38.2999C49.2166 36.7631 49.756 35.4262 50.8295 34.3528C51.9894 33.1928 53.7995 32.7399 55.9766 32.7399C58.1536 32.7399 59.9637 33.1928 61.1237 34.3528C62.1971 35.4262 62.7366 36.7631 62.7366 38.2999V40.0999C62.7366 41.6367 62.1971 42.9736 61.1237 44.047C59.9637 45.207 58.1536 45.6599 55.9766 45.6599ZM51.5366 43.3399C52.4166 44.2199 53.8966 44.6599 55.9766 44.6599C58.0566 44.6599 59.5366 44.2199 60.4166 43.3399C61.2966 42.4599 61.7366 41.3799 61.7366 40.0999V38.2999C61.7366 37.0199 61.2966 35.9399 60.4166 35.0599C59.5366 34.1799 58.0566 33.7399 55.9766 33.7399C53.8966 33.7399 52.4166 34.1799 51.5366 35.0599C50.6566 35.9399 50.2166 37.0199 50.2166 38.2999V40.0999C50.2166 41.3799 50.6566 42.4599 51.5366 43.3399Z" fill="#0937FD"></path> </svg> 