<?xml version="1.0" encoding="UTF-8"?> <svg xmlns="http://www.w3.org/2000/svg" width="64" height="46" viewBox="0 0 64 46" fill="none"> <path fill-rule="evenodd" clip-rule="evenodd" d="M21.1934 16.777L21.1998 16.7717C22.1791 15.9556 22.64 14.9738 22.64 13.7599V13.3399C22.64 11.8703 22.1586 10.832 21.2624 10.0903L21.2558 10.0848L21.2492 10.0792C20.3661 9.32223 19.0666 8.8799 17.22 8.8799C15.4581 8.8799 13.9637 9.2818 12.7014 10.0532C11.4045 10.8457 10.2678 11.9736 9.29844 13.4649L8.66286 14.4427L2.00953 8.49386L2.56 7.7599C3.3133 6.7555 4.14978 5.81456 5.06877 4.93726C6.05262 3.99619 7.14446 3.20369 8.34234 2.56133C9.58103 1.87856 10.9388 1.34995 12.411 0.97141C13.9093 0.586117 15.5956 0.399902 17.46 0.399902C19.6564 0.399902 21.6891 0.668639 23.5505 1.21711C25.4472 1.72438 27.0872 2.49393 28.4461 3.54449C29.8358 4.58807 30.9148 5.85974 31.6664 7.35676C32.4698 8.83631 32.86 10.499 32.86 12.3199C32.86 13.7523 32.6209 15.0826 32.1261 16.2972C31.6435 17.4817 30.9805 18.5256 30.1343 19.4189C29.3341 20.3055 28.3828 21.0333 27.2889 21.6032C27.0483 21.7333 26.8033 21.8553 26.554 21.969C26.9191 22.1188 27.2769 22.2842 27.6272 22.4654C28.8067 23.0351 29.8415 23.7834 30.7241 24.7103C31.6201 25.651 32.3246 26.7806 32.8462 28.083C33.383 29.3825 33.64 30.834 33.64 32.4199C33.64 34.4021 33.2295 36.237 32.3944 37.9071C31.5653 39.5653 30.3881 40.98 28.8764 42.1473C27.4036 43.3156 25.6286 44.2067 23.5727 44.8361L23.56 44.84C21.533 45.4312 19.2765 45.7199 16.8 45.7199C14.7335 45.7199 12.8633 45.4933 11.2001 45.0256C9.56491 44.6053 8.09673 44.0121 6.8055 43.2374C5.53652 42.476 4.42478 41.6016 3.47736 40.6111L3.47002 40.6035L3.46284 40.5956C2.55269 39.6027 1.7422 38.585 1.03307 37.5422L0.504059 36.7643L7.96169 30.9981L8.53929 31.9684C9.48361 33.5549 10.5847 34.8372 11.8363 35.8323C13.0078 36.7337 14.6663 37.2399 16.92 37.2399C19.1835 37.2399 20.7586 36.7296 21.794 35.8565C22.8583 34.953 23.42 33.7092 23.42 31.9999V31.5199C23.42 29.8794 22.8425 28.742 21.7388 27.9536L21.7312 27.9482L21.7237 27.9426C20.56 27.0782 18.8214 26.5799 16.38 26.5799H11.18V18.0399H16.32C18.7443 18.0399 20.294 17.5524 21.1871 16.7825L21.1934 16.777ZM11.22 36.6199C10.0963 35.7275 9.09544 34.6304 8.2175 33.3284C8.0329 33.0546 7.85373 32.7718 7.68 32.4799L1.86 36.9799C2.54 37.9799 3.32 38.9599 4.2 39.9199C5.08 40.8399 6.12 41.6599 7.32 42.3799C8.52 43.0999 9.9 43.6599 11.46 44.0599C13.02 44.4999 14.8 44.7199 16.8 44.7199C19.2 44.7199 21.36 44.4399 23.28 43.8799C25.24 43.2799 26.9 42.4399 28.26 41.3599C29.66 40.2799 30.74 38.9799 31.5 37.4599C32.26 35.9399 32.64 34.2599 32.64 32.4199C32.64 30.9399 32.4 29.6199 31.92 28.4599C31.44 27.2599 30.8 26.2399 30 25.3999C29.2 24.5599 28.26 23.8799 27.18 23.3599C26.5246 23.0201 25.8397 22.7391 25.1253 22.5171C24.6838 22.3799 24.2311 22.2652 23.7671 22.1731C23.7448 22.1686 23.7224 22.1642 23.7 22.1599V21.8599C23.7202 21.8556 23.7404 21.8512 23.7606 21.8468C24.2243 21.745 24.6742 21.6192 25.1103 21.4693C25.7059 21.2645 26.2758 21.0147 26.82 20.7199C27.82 20.1999 28.68 19.5399 29.4 18.7399C30.16 17.9399 30.76 16.9999 31.2 15.9199C31.64 14.8399 31.86 13.6399 31.86 12.3199C31.86 10.6399 31.5 9.1399 30.78 7.8199C30.1 6.4599 29.12 5.2999 27.84 4.3399C26.6 3.3799 25.08 2.6599 23.28 2.1799C21.52 1.6599 19.58 1.3999 17.46 1.3999C15.66 1.3999 14.06 1.5799 12.66 1.9399C11.26 2.2999 9.98 2.7999 8.82 3.4399C7.7 4.0399 6.68 4.7799 5.76 5.6599C4.88 6.4999 4.08 7.3999 3.36 8.3599L8.46 12.9199C8.6462 12.6334 8.83881 12.3585 9.03784 12.0951C9.95043 10.8874 10.9978 9.92235 12.18 9.1999C13.62 8.3199 15.3 7.8799 17.22 7.8799C19.22 7.8799 20.78 8.3599 21.9 9.3199C23.06 10.2799 23.64 11.6199 23.64 13.3399V13.7599C23.64 15.2799 23.04 16.5399 21.84 17.5399C20.68 18.5399 18.84 19.0399 16.32 19.0399H12.18V25.5799H16.38C18.94 25.5799 20.92 26.0999 22.32 27.1399C23.72 28.1399 24.42 29.5999 24.42 31.5199V31.9999C24.42 33.9599 23.76 35.4999 22.44 36.6199C21.16 37.6999 19.32 38.2399 16.92 38.2399C14.52 38.2399 12.62 37.6999 11.22 36.6199ZM56.9766 45.6599C54.7995 45.6599 52.9894 45.207 51.8295 44.047C50.756 42.9736 50.2166 41.6367 50.2166 40.0999V38.2999C50.2166 36.7631 50.756 35.4262 51.8295 34.3528C52.9894 33.1928 54.7995 32.7399 56.9766 32.7399C59.1536 32.7399 60.9637 33.1928 62.1237 34.3528C63.1971 35.4262 63.7366 36.7631 63.7366 38.2999V40.0999C63.7366 41.6367 63.1971 42.9736 62.1237 44.047C60.9637 45.207 59.1536 45.6599 56.9766 45.6599ZM52.5366 43.3399C53.4166 44.2199 54.8966 44.6599 56.9766 44.6599C59.0566 44.6599 60.5366 44.2199 61.4166 43.3399C62.2966 42.4599 62.7366 41.3799 62.7366 40.0999V38.2999C62.7366 37.0199 62.2966 35.9399 61.4166 35.0599C60.5366 34.1799 59.0566 33.7399 56.9766 33.7399C54.8966 33.7399 53.4166 34.1799 52.5366 35.0599C51.6566 35.9399 51.2166 37.0199 51.2166 38.2999V40.0999C51.2166 41.3799 51.6566 42.4599 52.5366 43.3399Z" fill="#0937FD"></path> </svg> 